<?xml version="1.0" encoding="UTF-8" standalone="no"?>
<svg
   viewBox="0 0 1010 268"
   width="1010"
   height="268"
   version="1.1"
   id="svg10"
   sodipodi:docname="quizmaster_exact_shape.svg"
   inkscape:version="1.4.2 (f4327f4, 2025-05-13)"
   xmlns:inkscape="http://www.inkscape.org/namespaces/inkscape"
   xmlns:sodipodi="http://sodipodi.sourceforge.net/DTD/sodipodi-0.dtd"
   xmlns="http://www.w3.org/2000/svg"
   xmlns:svg="http://www.w3.org/2000/svg">
  <defs
     id="defs10" />
  <sodipodi:namedview
     id="namedview10"
     pagecolor="#505050"
     bordercolor="#eeeeee"
     borderopacity="1"
     inkscape:showpageshadow="0"
     inkscape:pageopacity="0"
     inkscape:pagecheckerboard="0"
     inkscape:deskcolor="#505050"
     inkscape:zoom="2"
     inkscape:cx="558.5"
     inkscape:cy="72.75"
     inkscape:window-width="3840"
     inkscape:window-height="2054"
     inkscape:window-x="-11"
     inkscape:window-y="-11"
     inkscape:window-maximized="1"
     inkscape:current-layer="g10" />
  <g
     fill="#000000"
     fill-rule="evenodd"
     stroke="none"
     id="g10">
    <path
       d="m 298.48182,59.450381 c -1.09717,-1.562536 2.57269,0.211937 -1.94672,-1.100121 -4.51941,-1.312058 -20.78653,-2.045778 -25.96656,-1.318294 -5.18003,0.727485 -4.11785,0.932342 -5.09497,1.74391 -0.97713,0.811568 2.2093,-10.683785 -1.10013,1.946723 -3.30942,12.630509 5.2224,63.074751 0.14138,76.105061 -5.08101,13.0303 -3.02368,4.11825 -5.29779,5.73876 -2.2741,1.62051 -5.25071,3.05058 -8.19252,3.58923 -2.94181,0.53865 -5.93024,0.99622 -8.98842,-0.45633 -3.05819,-1.45255 -6.05479,-5.15257 -7.58408,-8.39534 -1.5293,-3.24277 -0.96337,-3.89894 -1.4904,-10.08855 -0.52702,-6.1896 -0.74323,-18.7218 -0.62843,-27.06668 0.10663,-7.750672 1.08563,-15.294608 1.16467,-21.553952 0.003,-0.235502 0.0104,-0.469248 0.005,-0.700994 l 0,0 c -0.006,-0.240465 -7.9e-4,-0.479039 -0.003,-0.715466 -0.0747,-6.520324 0.42431,-12.950008 -1.18617,-16.080827 -1.61049,-3.130818 1.12487,-1.258035 -3.84275,-3.198955 -4.96761,-1.940921 -21.82662,-2.796835 -26.96527,-1.368998 -5.13864,1.427837 -2.80565,0.673771 -4.14696,2.793327 -1.34132,2.119556 -1.20533,3.575169 -1.50575,9.936434 -0.30043,6.361264 1.39672,17.755156 1.57644,28.116095 0.17971,10.360936 -1.13104,26.485396 -0.72521,34.006976 0.40583,7.52157 0.38628,6.81317 1.43968,11.08725 1.05341,4.27408 2.50274,9.69512 5.28244,14.28622 2.7797,4.59109 8.0048,9.89315 11.37612,12.59301 3.37131,2.69986 5.6144,3.52962 7.78689,4.40048 2.1725,0.87086 1.13593,0.67912 4.94287,1.25223 3.80694,0.57311 13.02913,1.72427 17.97685,0.91267 4.94771,-0.81161 7.81372,-2.75312 11.23937,-4.43583 3.42564,-1.68271 7.05767,-4.98125 9.29264,-5.53595 2.23497,-0.5547 1.83534,-0.50387 2.99614,0.15211 1.1608,0.65598 1.63414,3.07527 2.79333,4.14696 1.15919,1.0717 -0.18357,1.01662 3.89345,2.20025 4.07702,1.18362 17.16364,1.76228 20.97299,1.06477 3.80934,-0.69751 1.21849,-0.14784 2.04813,-0.8973 0.82963,-0.74947 -0.16596,5.23116 2.20024,-3.89345 2.36623,-9.12461 0.0611,-38.71739 -0.35955,-52.08523 -0.42065,-13.36783 -1.55524,-20.089413 -1.57644,-28.116093 -0.0212,-8.026681 1.29933,-15.112713 1.01407,-19.974275 -0.28526,-4.861562 -0.44392,-7.527294 -1.5411,-9.089831 z"
       id="path1"
       sodipodi:nodetypes="zzzzzzzzzzzssssszzzzzzzzzzzzzzzzzzzzzzzzz" />
    <path
       d="m 337.63447,57.432967 c -2.15263,-0.328431 -24.46083,0.154651 -26.06796,0.679134 -1.60713,0.524482 -2.67333,1.316912 -3.14825,2.84403 -0.47492,1.527118 -3.95994,88.071099 0.6177,106.167879 0.8841,3.49517 1.20956,5.21666 2.44759,5.77093 1.4707,0.65844 2.97773,0.4959 4.83811,0.35949 2.78352,-0.20411 21.76604,1.0784 23.90512,0.34945 2.13907,-0.72894 2.21556,-1.44485 3.76416,-4.70524 1.54859,-3.2604 0.85844,-8.95083 0.81125,-15.97942 -0.0472,-7.0286 -1.6273,-18.5901 -1.67784,-26.11867 -0.0505,-7.52858 0.99878,-11.28128 0.96337,-18.97556 -0.0354,-7.69429 -1.73408,-26.233674 -1.62715,-27.117385 0.10695,-0.88371 0.89019,-1.774367 1.25223,-4.942865 0.36204,-3.168498 0.8344,-11.200953 -0.28886,-14.032696 -1.12325,-2.831744 -1.82845,-2.447024 -2.84403,-3.148252 -1.01558,-0.701229 -0.7928,-0.822394 -2.94544,-1.150825 z"
       id="path2"
       sodipodi:nodetypes="zzzssszzzzzzzzzz" />
    <path
       d="m 354.61261,58.294929 c -0.87486,0.481177 -0.75249,-0.938562 -2.09884,1.89602 -1.34634,2.834581 -1.10101,11.948786 -0.81126,15.97942 0.28976,4.030634 -0.61118,5.982702 1.5918,8.091117 2.20298,2.108415 3.43089,1.074901 9.93644,1.50575 6.50554,0.430849 24.18637,-2.641222 29.0641,-0.527023 4.87774,2.114199 1.62616,1.340695 1.89602,2.098835 0.26987,0.758139 0.71862,-0.52118 -0.1014,1.997427 -0.82003,2.518608 -5.4819,9.153352 -7.59944,11.629635 -2.11754,2.47629 -1.62042,0.72985 -4.19767,3.79205 -2.57725,3.06219 -7.14542,12.06247 -9.79969,15.52308 -2.65426,3.46061 -4.07724,3.90931 -5.29779,5.73877 -1.22055,1.82945 -0.59357,2.35335 -2.25094,4.89216 -1.65737,2.53881 -7.5629,7.29732 -8.49675,9.58151 -0.93385,2.28419 0.61517,-0.31579 -0.1014,1.99742 -0.71657,2.31322 -5.23111,5.9349 -6.55003,10.68163 -1.31891,4.74674 -1.06423,13.9448 0.13676,17.02884 1.20098,3.08404 0.11527,1.25304 1.89602,2.09884 1.78074,0.84579 4.61424,0.61654 8.98842,0.45633 4.37418,-0.16021 9.59152,-1.85806 17.13024,-2.13418 7.53873,-0.27613 20.65956,0.14166 27.96399,1.4197 7.30443,1.27805 11.88018,3.13554 15.7766,4.80611 3.89643,1.67057 6.07139,3.02665 7.7869,4.40049 1.71551,1.37384 0.98607,1.59289 2.84403,3.14825 1.85796,1.55535 5.09903,2.5278 8.73491,5.4499 3.63587,2.9221 8.90895,10.72316 12.37483,12.64371 3.46588,1.92056 0.56552,2.95291 5.94158,1.30294 5.37606,-1.64998 14.64059,-12.82403 16.42272,-18.15774 2.0443,-5.55704 -3.27781,-9.73188 -6.08651,-12.29148 -2.8087,-2.5596 -4.56732,-4.45785 -6.21057,-5.59246 -1.64326,-1.1346 -2.57176,-1.74564 -5.04805,-3.86318 -2.47628,-2.11754 -6.22444,-4.90958 -10.93241,-7.38703 -4.70797,-2.47746 -11.62346,-7.32081 -15.3686,-8.15976 -3.74514,-0.83895 -2.142,0.24542 -4.99357,-0.25352 -2.85157,-0.49894 -6.53909,-2.54152 -11.83245,-3.60459 -5.29336,-1.06307 -17.31445,1.02463 -19.92357,-2.01278 -2.60912,-3.03741 -0.28546,-2.96685 0.20281,-3.99486 0.48827,-1.028 1.75358,-1.16911 2.09884,-1.89602 0.34526,-0.72691 -0.44611,-0.8447 0.10141,-1.99742 0.54751,-1.15273 3.65015,-2.63932 4.19766,-3.79204 0.54752,-1.15273 -0.53243,-0.49025 0.10141,-1.99743 0.63385,-1.50718 4.66395,-4.23159 5.29779,-5.73877 0.63385,-1.50718 -0.38063,-1.19713 0.10141,-1.99742 0.48204,-0.8003 2.30311,-0.83138 3.09755,-1.84532 0.79444,-1.01394 0.34419,-2.41353 1.20153,-3.94415 0.85734,-1.53062 3.17437,-3.14557 4.24837,-4.79076 1.074,-1.64519 1.16126,-3.40911 2.25094,-4.89216 1.08969,-1.48304 0.62992,0.30197 4.19767,-3.79204 3.56775,-4.094007 12.81664,-15.320786 15.14818,-22.260564 2.33154,-6.939778 1.4394,-13.824552 0.86196,-16.978134 -0.57743,-3.153581 -0.29081,-1.286511 -0.89731,-2.048131 -0.60649,-0.76162 0.49435,-0.932644 -2.89473,-2.149538 -3.38908,-1.216895 -11.7927,-0.923259 -17.97685,-0.912665 -6.18415,0.01059 -9.22504,0.894048 -19.07697,1.034059 -9.85192,0.14001 -32.85751,-1.909766 -39.99925,-1.029431 -7.14174,0.880334 -2.17199,0.365425 -3.04684,0.846603 z"
       id="path3"
       sodipodi:nodetypes="zzzzzzzzzzzzzzzzzzzzzzzzzzzzzzzzzzzzzzzzzzzzzzzzzzzzzzzz" />
    <path
       d="m 669.96799,59.285861 c -2.78022,-1.290761 -5.52855,-2.054676 -10.88444,-2.555167 -5.3559,-0.500491 -14.77976,-0.362717 -21.0744,0.932651 -6.29464,1.295369 -11.69697,3.656291 -16.33434,6.179739 -4.63738,2.523447 -9.76816,5.316682 -11.44219,8.430684 -1.67402,3.114001 -0.97555,4.32324 -0.35492,6.990996 0.62062,2.667756 2.75875,6.157531 4.58794,8.243228 1.82919,2.085697 3.19112,3.525401 5.78946,4.299076 2.59835,0.773676 5.14418,0.579446 9.03913,-0.542381 3.89495,-1.121827 9.32833,-6.185154 13.38891,-7.330563 4.06058,-1.145408 7.51218,-0.980409 10.03784,-0.491677 2.52566,0.488731 3.59906,1.300821 4.89216,2.250945 1.2931,0.950124 1.99527,1.605066 2.84403,3.148252 0.84877,1.543187 1.50404,4.383359 1.69321,6.09369 0.18916,1.710331 0.38658,2.753942 -0.20282,3.994855 -0.58939,1.240911 0.87849,0.988017 -3.14825,2.844031 -4.02673,1.85601 -15.90277,1.22763 -22.17452,2.87937 -6.27174,1.65175 -11.00198,3.51173 -15.33563,6.23045 -4.33364,2.71871 -8.10123,6.84581 -10.49417,9.4801 -2.39294,2.63429 -3.09794,3.3285 -4.29908,5.78947 -1.20113,2.46096 -2.07367,4.84614 -2.45376,8.88701 -0.38008,4.04088 -0.022,10.79744 1.23688,15.08212 1.25884,4.28468 2.80349,7.04528 5.48524,10.29136 2.68175,3.24607 6.70897,6.6884 10.58022,8.54744 3.87126,1.85905 8.02964,2.266 11.88316,2.60588 3.85353,0.33987 6.38043,0.50679 11.03656,-0.44098 4.65612,-0.94776 13.53217,-4.06328 16.33434,-6.17974 2.80218,-2.11645 1.21957,-2.25639 2.14954,-2.89473 0.92997,-0.63834 1.54275,-1.37507 3.04685,-0.8466 1.5041,0.52846 2.39137,3.98687 3.74133,5.19638 1.34996,1.20951 0.77678,1.29542 3.89345,2.20024 3.11667,0.90482 11.55907,1.76912 14.98071,0.76056 3.42164,-1.00857 3.17119,-0.0232 5.19638,-3.74134 2.02518,-3.71809 1.05182,-13.28746 0.96337,-18.97556 -0.0885,-5.6881 -1.39719,-11.05395 -1.23688,-15.08212 0.16035,-4.02816 1.03939,-2.93052 1.45505,-8.93772 0.41566,-6.00719 -0.14325,-20.70944 -0.62843,-27.066674 -0.48518,-6.357232 -0.44196,-7.496517 -1.43969,-11.087258 -0.99773,-3.590742 -2.32353,-6.894115 -4.48653,-10.240656 -2.163,-3.346541 -6.16143,-7.938871 -8.53209,-9.444756 -2.37066,-1.505885 -2.25757,-0.350702 -3.94415,-1.201528 -1.68658,-0.850826 -3.00925,-3.008317 -5.78947,-4.299077 z m -8.39071,66.660299 c 0.93266,0.79037 0.53,0.0421 0.89731,2.04813 0.36731,2.006 0.75522,7.04307 -0.50704,9.98714 -1.26226,2.94408 -4.12681,5.35207 -6.34721,6.68678 -2.2204,1.3347 -3.55508,1.41244 -6.09369,1.6932 -2.53861,0.28077 -6.61215,0.51517 -8.98842,-0.45633 -2.37627,-0.97149 -3.86192,-2.03483 -4.79076,-4.24837 -0.92884,-2.21355 -0.61587,-5.56073 0.40563,-7.98971 1.02151,-2.42898 1.91817,-3.81445 5.29779,-5.73877 3.37963,-1.92431 11.74696,-3.30002 15.18352,-3.2343 3.43657,0.0657 4.0102,0.46187 4.94287,1.25223 z"
       id="path4"
       sodipodi:nodetypes="zzzzzzzzzzzzzzzzzzzzzzzzzzzzzzzzzzzzzzzzzzzzzzzzzzzzz" />
    <path
       d="m 886.34931,57.254563 c -5.23523,0.376347 -12.49298,1.770614 -16.18224,3.183597 -3.68926,1.412983 -3.09677,1.297407 -6.1951,3.690633 -3.09832,2.393227 -8.32641,7.03783 -11.59429,11.426826 -3.26788,4.388996 -6.12774,10.298183 -7.75155,14.62578 -1.62381,4.327598 -1.89674,6.234102 -2.55517,10.884441 -0.65842,4.65035 -0.94309,12.96711 -0.86196,16.97814 0.0811,4.01102 0.0518,3.80875 0.64379,7.0417 0.59197,3.23294 1.90878,8.25961 3.38641,12.18738 1.47763,3.92776 3.21816,7.9916 5.43454,11.29007 2.21639,3.29847 5.16341,6.12414 7.58409,8.39534 2.42067,2.2712 3.8263,3.62224 6.73747,5.34849 2.91118,1.72625 5.65928,3.24379 10.78304,4.5526 5.12376,1.3088 14.17097,2.37825 19.92357,2.01278 5.7526,-0.36546 9.37724,-1.541 14.18481,-3.285 4.80757,-1.744 10.77387,-4.45358 14.38762,-7.27986 3.61375,-2.82629 6.68058,-5.99242 7.44733,-8.6335 0.76675,-2.64108 0.0195,-3.42289 -0.7452,-5.04427 -0.76464,-1.62139 -3.08368,-2.90977 -3.79204,-4.19767 -0.70836,-1.2879 -0.10815,-1.90433 -0.8466,-3.04685 -0.73845,-1.14251 -1.97988,-2.4711 -3.84275,-3.19895 -1.86286,-0.72785 -2.85363,-1.2172 -6.99099,-0.35493 -4.13736,0.86227 -12.53019,7.02002 -16.43575,8.17717 -3.90557,1.15715 -3.52066,0.75373 -6.04299,0.69449 -2.52233,-0.0593 -5.80183,0.13542 -8.93772,-1.45505 -3.13589,-1.59046 -6.80438,-5.69452 -8.58279,-8.44604 -1.77842,-2.75152 -2.37382,-5.39414 -2.64122,-7.1431 -0.26741,-1.74897 -0.26466,-2.11869 0.15211,-2.99615 0.41677,-0.87745 1.06299,-1.37703 2.09883,-1.89602 1.03585,-0.51898 -1.95458,-0.27024 4.04556,-0.7959 6.00014,-0.52565 23.82299,0.81581 32.00955,0.62381 8.18655,-0.192 13.58426,0.34448 17.07954,-1.13547 3.49527,-1.47995 3.36251,-2.5825 4.19767,-3.79204 0.83515,-1.20954 0.54098,0.36412 1.15082,-2.94544 0.60984,-3.30956 0.94388,-10.69197 -0.13675,-17.028835 -1.08063,-6.336862 -4.07735,-15.458483 -6.97564,-20.379904 -2.89828,-4.921421 -6.07227,-7.210307 -8.53209,-9.444756 -2.45982,-2.234449 -4.03088,-3.667631 -5.78947,-4.299077 -1.75858,-0.631446 -3.19536,-1.503443 -5.06961,-1.988354 -1.87426,-0.484911 -2.11498,-0.621411 -5.76413,-1.565527 -3.64914,-0.944116 -9.74548,-1.136901 -14.9807,-0.760554 z m 18.19964,35.969053 c 0.24114,2.180253 -0.46186,4.010199 -1.25223,4.942865 -0.79036,0.932667 2.40301,-0.01003 -2.04813,0.897307 -4.45114,0.907333 -20.63156,0.910191 -25.01855,-0.268877 -4.38699,-1.179068 -1.32631,-0.240821 -1.94672,-1.100121 -0.62041,-0.859299 -1.02421,-2.631329 -0.7959,-4.045558 0.22831,-1.414229 0.70298,-2.023814 2.20024,-3.893448 1.49727,-1.869634 4.80771,-5.311021 7.34592,-6.636071 2.53822,-1.325049 4.8653,-1.629473 7.09241,-1.642502 2.2271,-0.01303 4.11543,0.523285 5.94158,1.302935 1.82614,0.77965 3.30762,1.515004 4.84145,3.24966 1.53384,1.734655 3.3988,5.013558 3.63993,7.19381 z"
       id="path5"
       sodipodi:nodetypes="zzzzzzzzzzzzzzzzzzzzzzzzzzzzzzzzzzzzzzzzzzzzzzzzzzzzz" />
    <path
       d="m 999.45748,57.990503 c -1.2598,-0.976984 -0.61016,-0.758918 -2.94544,-1.150825 -2.33528,-0.391907 -8.15316,-0.223301 -11.03656,0.440974 -2.88339,0.664275 -3.62178,1.061462 -6.14439,2.69192 -2.5226,1.630458 -7.91516,7.049057 -8.39534,7.584081 -0.48017,0.535023 -1.37192,0.558926 -1.99742,-0.101408 -0.62551,-0.660333 -2.34568,-6.155111 -6.58537,-8.344635 -4.2397,-2.189524 -14.4844,-2.155832 -17.97685,-0.912665 -3.49244,1.243168 -3.13334,1.14816 -3.14825,2.84403 -0.0149,1.695871 -2.9801,71.633955 -2.5152,88.986935 0.4649,17.35297 0.266,15.36385 0.40466,15.96087 0.13866,0.59702 0.8068,0.92898 1.44089,1.03809 0.63409,0.10909 19.10166,0.30581 23.36057,-0.69996 4.2589,-1.00577 4.00988,-1.96117 4.14696,-2.79333 0.13707,-0.83216 1.76425,-60.23687 2.14491,-61.97095 0.38067,-1.734079 1.0304,-3.062709 2.25095,-4.892162 1.22055,-1.829454 3.16108,-4.308893 5.29779,-5.738765 2.13671,-1.429871 4.07612,-2.172287 7.14311,-2.641216 3.06699,-0.468928 8.62327,1.144113 10.98585,0.55774 2.36258,-0.586373 2.15655,-0.882512 3.09755,-1.845317 0.94099,-0.962804 0.96435,-0.0021 2.2002,-3.893447 1.2359,-3.891305 3.1522,-15.668822 2.0128,-19.923572 -1.1394,-4.25475 -2.4815,-4.219399 -3.74131,-5.196383 z"
       id="path6"
       sodipodi:nodetypes="zzzzzzzzzzzzzzzzzzzzzzzz" />
    <path
       id="path16"
       d="m 154.68523,129.59205 c -1.10237,-11.4762 -3.65876,-16.30389 -7.86945,-21.06153 -4.21069,-4.75763 -7.43881,-5.5401 -11.66205,-7.30773 -1.56788,-0.65623 -3.26213,-0.99921 -4.94287,-1.252235 -7.58124,-1.141325 -15.3337,-1.843225 -22.97041,-1.166183 -2.41723,0.214303 -4.81116,0.814955 -7.09241,1.642498 -5.052653,1.83291 -10.017954,4.15018 -14.387617,7.27986 -4.794391,3.4339 -10.76213,6.78579 -12.643712,12.37484 -0.542298,1.61083 -0.0637,3.54942 0.745196,5.04427 1.015773,1.87717 2.81511,3.44067 4.790754,4.24837 1.542719,0.63072 3.370252,0.63117 4.993569,0.25352 3.062869,-0.71255 5.316295,-3.43818 8.243228,-4.58794 3.23915,-1.27241 6.674839,-2.15898 10.139252,-2.4891 2.65464,-0.25297 5.37097,-0.0977 7.98971,0.40563 2.38309,0.45801 4.86317,1.01723 6.88958,2.35235 3.54282,2.33419 6.37915,5.78896 8.5321,9.44475 0.9109,1.54677 1.6052,3.3053 1.74391,5.09498 0.20193,2.60544 -0.7385,7.48742 -1.23677,7.79693 -0.49826,0.30952 -0.97605,2.00075 -2.04203,2.85717 -2.21534,1.77979 -15.19,28.89724 -14.77947,29.48191 0.57465,0.8184 0.15323,2.0439 -0.15211,2.99614 -0.82058,2.55907 -3.22268,4.34854 -4.34978,6.78818 -1.15284,2.49531 -1.92932,5.1807 -2.40306,7.8883 -0.8043,4.59683 -1.28546,9.35096 -0.70985,13.98199 0.48124,3.87178 1.51084,7.79578 3.43711,11.18867 2.09467,3.68949 5.13117,6.90828 8.5321,9.44476 3.47362,2.59069 7.53042,4.53781 11.73104,5.60201 5.17,1.30977 10.67841,1.39754 15.97942,0.81126 2.09541,-0.23175 4.12797,-0.9314 6.09369,-1.69321 5.01165,-1.94224 9.84281,-4.41044 14.38762,-7.27986 5.19719,-3.2813 8.72515,-9.43728 14.59044,-11.27471 0.95427,-0.29895 2.01249,0.33221 2.99614,0.15211 2.1995,-0.40274 3.93401,-2.35396 6.14439,-2.69192 5.61126,-0.85793 11.31618,2.71861 16.92743,1.86067 1.47359,-0.2253 3.17468,-0.6229 4.09627,-1.79461 1.66142,-2.11233 2.1465,-5.35609 1.40434,-7.93901 -0.65092,-2.26535 -2.61099,-4.23584 -4.74005,-5.24708 -0.60219,-0.28602 -1.39524,0.18461 -1.99743,-0.10141 -1.27744,-0.60675 -1.63259,-2.41858 -2.84403,-3.14825 -1.45597,-0.87695 -3.40757,-0.52301 -4.94286,-1.25223 -1.08563,-0.51564 -1.77774,-1.70598 -2.89474,-2.14954 -4.65732,-1.84946 -9.95907,-2.39248 -14.93,-1.75927 -10.50859,1.33861 -19.06007,10.69365 -29.62185,11.51287 -2.02152,0.15681 -4.23603,-0.20604 -5.94158,-1.30293 -2.18994,-1.4078 -3.92833,-3.75609 -4.68934,-6.2458 -0.48719,-1.59387 -0.14424,-3.37507 0.25352,-4.99357 0.42839,-1.74319 1.29973,-3.36985 2.25094,-4.89216 4.16876,-6.67161 12.76779,-14.19034 14.94536,-18.26571 5.45784,-12.50769 3.14075,-27.28412 2.00636,-40.60805 z"
       sodipodi:nodetypes="zzssssssssssssssssssssssssssssssssssssssssscssszz" />
    <path
       id="path17"
       d="M 109.80249,-0.38862338 C 105.63642,-0.76419211 101.44863,-0.90895249 97.279399,-0.8288434 89.827215,-0.68565392 82.335124,0.23968422 75.104883,2.0505321 69.457884,3.46485 63.95583,5.584211 58.770537,8.2302704 53.24771,11.048573 48.136599,14.662119 43.232091,18.455567 c -3.355945,2.595695 -6.592069,5.391681 -9.444756,8.532092 -2.424318,2.668836 -4.483102,5.661494 -6.448615,8.684202 -3.250558,4.998941 -6.451282,10.093413 -8.800968,15.573791 -2.166302,5.052658 -3.754717,10.380607 -4.806112,15.776605 -1.65873,8.512976 -2.372325,17.242953 -2.317008,25.915854 0.02796,4.384227 0.45457,8.790359 1.33828,13.084689 1.934479,9.40047 4.404945,18.84908 8.61814,27.4723 2.399996,4.91212 5.933779,9.20451 9.327991,13.49032 2.634026,3.32594 5.412135,6.56971 8.532091,9.44476 4.759504,4.38588 9.800167,8.5897 15.42168,11.7971 7.965819,4.54499 16.717512,7.69918 25.510225,10.30672 2.259747,0.67015 4.600696,1.06756 6.940292,1.35364 4.963034,0.60688 10.127936,1.96497 14.980709,0.76055 1.16646,-0.2895 1.90445,-1.7005 3.09755,-1.84531 0.25383,-0.0308 0.52229,-0.0481 0.7964,-0.0476 0,0 2.96778,-30.01974 1.62222,-31.72222 -1.34552,-1.70246 -5.83111,-1.31396 -8.735115,-1.59338 -5.401328,-0.51971 -10.977553,-1.37341 -15.827309,-3.8074 -1.48959,-0.7476 -2.290362,-2.59242 -3.842744,-3.19896 -0.620953,-0.24262 -1.389164,0.17147 -1.997427,-0.10141 -4.950904,-2.22103 -8.274438,-7.17763 -11.426826,-11.59429 -3.554934,-4.98066 -6.928688,-10.44529 -8.177165,-16.43575 -0.340045,-1.63161 0.436729,-3.337 0.253518,-4.99357 -0.347621,-3.14311 -2.192188,-5.997428 -2.539809,-9.140536 -0.842776,-7.620204 0.02486,-15.389174 1.166183,-22.970417 0.506053,-3.361468 1.311622,-6.702542 2.504464,-9.88573 1.151998,-3.074195 2.679706,-6.021621 4.451187,-8.785609 1.547273,-2.41416 3.386501,-4.646354 5.348494,-6.737478 2.257848,-2.406451 4.237168,-5.529482 7.345922,-6.636071 0.628063,-0.223565 1.350392,0.261996 1.997427,0.101407 2.332922,-0.579011 3.9504,-2.830916 6.195097,-3.690633 3.850364,-1.474687 8.024183,-2.092061 12.136676,-2.387698 4.987127,-0.358512 10.064967,-0.153533 14.980707,0.760554 3.73654,0.694814 7.40072,1.923296 10.83374,3.553881 2.42751,1.152998 4.67276,2.692305 6.78818,4.349781 2.41908,1.895394 4.78795,3.930821 6.68678,6.347207 3.42779,4.362113 6.18792,9.29955 8.27857,14.438325 2.10568,5.175745 3.48181,10.689337 4.18231,16.232938 0.83681,6.622338 3.73724,12.404958 5.35283,18.881484 0.29452,1.180675 3.89972,15.464255 4.94221,18.062385 1.0425,2.59813 6.25665,22.07545 7.4501,25.63656 1.19345,3.56111 4.40374,4.08542 6.50831,3.96193 5.20579,-1.72153 5.53863,-5.14745 7.91283,-9.83848 2.89605,-5.62253 5.14163,-11.59885 6.90495,-17.67262 1.3143,-4.52713 2.13512,-9.20139 2.70728,-13.88059 0.56641,-4.63217 0.74639,-9.315465 0.70985,-13.98199 -0.0447,-5.705574 0.56069,-11.631726 -1.13547,-17.079541 -0.35727,-1.14752 -1.45223,-1.9618 -1.84531,-3.097548 -1.21892,-3.521806 -0.44196,-7.496517 -1.43969,-11.087258 -1.79592,-6.463334 -4.91147,-12.518178 -8.07576,-18.43318 -1.35258,-2.528385 -2.86615,-4.990521 -4.63864,-7.244515 -5.10151,-6.487345 -9.6103,-14.45682 -17.11489,-17.890798 -0.60622,-0.277394 -1.39524,0.184616 -1.99743,-0.101408 -1.27744,-0.606747 -1.72648,-2.281588 -2.84403,-3.148252 -3.7714,-2.924764 -8.07546,-5.3925551 -12.67906,-6.6514291 -0.96458,-0.2637703 -2.05497,0.1858283 -2.99614,-0.1521109 -1.13114,-0.4061524 -1.8275,-1.596839 -2.89473,-2.1495383 -3.37486,-1.7477878 -7.11184,-2.7845207 -10.83374,-3.553881 -4.08367,-0.84414169 -8.228,-1.45051691 -12.39405,-1.82608408 z"
       sodipodi:nodetypes="ssssssssssssssssssscsssssssssssssssssssssssszzssssssssssssssssss" />
    <path
       d="m 317.99514,10.376655 c -3.86965,1.387776 -6.43449,4.219164 -8.34464,6.585368 -1.91015,2.366204 -2.61737,3.47562 -3.35106,6.838885 -0.7337,3.363265 -0.59851,9.792054 0.33956,13.033982 0.93807,3.241929 1.82754,4.013981 3.69064,6.195097 1.86309,2.181116 5.61413,5.27983 7.68548,6.397912 2.07136,1.118081 1.76299,0.9432 3.94415,1.201528 2.18117,0.258327 6.28517,0.202562 9.03913,-0.542381 2.75397,-0.744944 4.78774,-1.612321 7.19381,-3.63993 2.40607,-2.02761 5.32021,-6.64588 6.44862,-8.684202 1.12841,-2.038322 0.75891,-0.610154 1.15082,-2.945438 0.39191,-2.335283 0.2952,-8.321884 -0.44097,-11.036554 -0.73617,-2.714671 -1.0922,-2.954109 -2.74262,-5.14568 -1.65043,-2.191571 -5.70074,-6.154188 -7.63479,-7.396625 -1.93405,-1.2424377 -0.12337,-0.649102 -2.94544,-1.150825 -2.82207,-0.5017223 -10.16305,-1.0989118 -14.03269,0.288863 z"
       id="path8"
       sodipodi:nodetypes="zzzzzzzzzzzzzzzz" />
    <path
       id="path13"
       d="m 768.64919,75.222798 1.34269,-10.36922 c -0.0248,-0.707725 -0.0817,-1.150841 -3.04725,-2.646894 -2.99066,-1.508696 -11.09893,-3.987669 -15.7766,-4.806113 -4.67768,-0.818444 -8.12415,-0.759855 -11.98457,-0.608443 -3.86042,0.151411 -8.0456,0.690029 -11.08726,1.439688 -3.04166,0.749659 -4.33498,1.171266 -7.1431,2.641216 -2.80813,1.469949 -6.4528,3.664659 -9.34335,6.534663 -2.89056,2.870004 -5.98475,7.446869 -7.54874,10.630926 -1.56399,3.184057 -1.86191,4.046308 -2.40306,7.888303 -0.54115,3.841994 -0.45623,11.320981 0.23816,15.031406 0.69439,3.71043 0.64099,3.83943 2.64122,7.14311 2.00022,3.30368 6.00892,8.36991 10.42811,11.54359 4.41919,3.17368 12.25317,6.0019 15.6752,6.80354 3.42202,0.80164 2.73879,0.50869 3.76679,0.99696 1.02801,0.48828 0.58455,0.19906 2.12408,1.30469 1.53953,1.10563 6.29807,2.29614 7.8376,3.40177 1.53953,1.10563 1.33245,0.90382 1.89602,2.09884 0.56358,1.19501 1.14672,3.26741 0.7452,5.04427 -0.40152,1.77686 -1.45063,3.60111 -3.24966,4.84146 -1.79903,1.24034 -5.05372,1.46175 -7.0924,1.6425 -2.03869,0.18074 -1.21347,0.69573 -4.99357,-0.25352 -3.7801,-0.94925 -12.59964,-7.18936 -16.62321,-7.85296 -4.02357,-0.66359 -4.31014,0.0549 -6.04299,0.69449 -1.73285,0.63963 -1.9985,0.39538 -4.14696,2.79333 -2.14846,2.39795 -6.39989,9.40487 -6.65143,12.67906 -0.25154,3.27419 0.36031,3.33179 1.74391,5.09497 1.3836,1.76319 3.87314,2.81479 6.78818,4.34978 2.91504,1.535 6.49868,3.26762 10.78304,4.5526 4.28435,1.28497 10.36312,2.41668 14.87929,2.75798 4.51618,0.34131 7.41261,0.45613 12.03527,-0.39027 4.62267,-0.84643 10.73069,-2.54968 15.28493,-5.23173 4.55424,-2.68204 8.94554,-6.89219 11.54359,-10.42811 2.59806,-3.53592 3.37273,-5.80717 4.50189,-9.78432 1.12916,-3.97716 1.69581,-10.57824 1.70857,-13.93129 0.0128,-3.35305 0.0554,-3.26524 -0.69449,-6.04299 -0.74988,-2.77774 -2.53272,-7.45813 -4.48654,-10.24065 -1.95382,-2.78253 -4.25292,-4.54695 -6.68677,-6.34721 -2.43385,-1.80026 -5.01213,-3.08255 -7.7869,-4.40048 -2.77476,-1.31794 -6.63864,-2.98038 -8.83631,-3.45248 -2.19767,-0.472094 -2.1206,0.2821 -3.99485,-0.20281 -1.87426,-0.484913 -4.71774,-1.898225 -6.83889,-3.351069 -2.12115,-1.452844 -4.93237,-3.320889 -5.73876,-5.29779 -0.8064,-1.976901 -0.50851,-3.389201 0.25351,-4.993569 0.76203,-1.604368 2.25464,-2.940781 4.19767,-3.79204 1.94303,-0.85126 3.98251,-0.990656 7.0417,-0.643789 3.0592,0.346868 8.14619,3.054126 10.83374,3.553881 2.68756,0.499755 3.60154,0.599007 4.99357,0.253518 1.39203,-0.345488 1.70026,-0.492844 3.09755,-1.845316 1.39729,-1.352473 2.57062,-6.209971 4.34978,-6.788182 0.97542,-0.317005 0.91656,-1.087072 1.4664,-2.015296 z"
       sodipodi:nodetypes="ccssssssssssssssssssssssssssssssssssssssssssssssssc" />
    <path
       id="path11"
       d="m 812.85499,28.352288 c -0.18908,-0.0083 -0.64652,0.471722 -3.28988,2.975691 -4.69931,4.4515 -14.92075,21.330134 -20.39526,27.000616 -5.4745,5.670481 -7.84604,5.687728 -10.44347,8.481387 -2.59743,2.79366 -3.39021,7.126829 -5.3992,7.736192 -2.00899,0.609364 -2.21862,0.207821 -2.94543,-1.150824 -0.0672,-0.125555 -0.10944,-0.264291 -0.1295,-0.415304 l -0.26382,5.196433 c 0.0453,0.06866 0.0924,0.139026 0.1398,0.212439 0.54345,0.840802 -0.16584,2.575492 -0.34628,3.854589 l -0.0339,0.667109 c 0.014,0.180286 0.0538,0.339473 0.12663,0.471871 0.25428,0.462316 0.16351,0.58919 0.19604,0.645536 l 0.002,0.002 c 0.0526,0.06483 0.32767,0.03995 1.74883,0.452535 2.59871,0.754448 11.22509,-0.848114 13.982,0.709851 2.7569,1.557965 0.0284,-5.122403 2.79332,4.146966 2.76493,9.269368 -1.61422,42.861165 -0.68986,53.033235 0.92436,10.17207 0.70759,5.52088 1.5918,8.09112 0.8842,2.57024 1.79237,4.68537 3.63993,7.19381 1.84756,2.50843 4.97851,5.61993 7.63478,7.39662 2.65627,1.7767 3.33766,2.47168 7.8376,3.40177 4.49994,0.93009 13.16732,1.27819 19.02627,-0.0353 5.85894,-1.31353 12.91997,-4.06499 15.38633,-7.22916 2.46636,-3.16416 1.81569,-3.85251 1.35364,-6.94029 -0.46205,-3.08778 -3.82653,-7.9291 -5.48525,-10.29136 -1.65871,-2.36226 -2.03712,-3.36414 -3.79204,-4.19767 -1.75491,-0.83353 -4.11319,-0.56812 -5.99228,-0.30422 -1.87909,0.2639 -3.39277,2.05757 -5.09498,1.74391 -1.7022,-0.31366 -2.89396,-1.93719 -3.84274,-3.19896 -0.49663,-0.66046 -0.52003,0.55728 -0.6612,0.65874 -0.001,6.2e-4 -0.005,0.003 -0.006,0.004 -0.002,7.5e-4 -0.008,0.001 -0.01,0.001 -0.1326,-0.004 -0.37659,-0.94328 -1.1175,-4.76006 -1.63512,-8.42323 -2.19828,-39.235627 1.38435,-46.990248 1.41347,-3.059441 1.75882,-3.990497 1.83111,-4.056906 l 1e-4,-0.002 0.002,9.8e-5 0.002,9.9e-5 0.002,1e-4 0.002,9.9e-5 -10e-5,0.0019 0.002,0.002 -10e-5,0.002 0.002,0.002 -10e-5,0.002 c 0.0327,0.151875 -0.30538,1.778006 1.30584,1.204479 2.86438,-1.019603 11.13895,1.024285 13.98199,0.709851 2.84304,-0.314434 1.96547,-0.251835 3.04684,-0.846603 1.08138,-0.594768 1.62928,0.354005 3.14825,-2.844031 1.51898,-3.198035 2.12829,-13.420649 0.86197,-16.978133 -1.26633,-3.557484 -0.3811,-2.577572 -3.79204,-4.19767 -3.41095,-1.620098 -13.74593,0.298611 -16.97814,-0.861961 -3.23221,-1.160572 -2.28824,-1.387918 -2.89473,-2.149538 -0.30325,-0.380811 -0.35554,0.06226 -0.41686,0.121598 -9.6e-4,7.37e-4 -0.003,0.0012 -0.004,0.0018 l -0.002,0.0019 -0.002,-9.8e-5 -0.002,-9.9e-5 -0.002,-10e-5 -0.002,-9.8e-5 -0.002,-9.9e-5 -0.002,-9.9e-5 10e-5,-0.002 c -0.0597,-0.03418 -0.15219,-0.47444 -0.4628,-2.170788 -0.69751,-3.809347 1.82941,-16.79706 1.06478,-20.972989 -0.76463,-4.175929 -0.57763,-3.064958 -1.79462,-4.096262 -1.21698,-1.031304 -3.28462,-1.540855 -4.94286,-1.252232 -0.72548,0.126272 -0.71004,-0.17588 -0.85709,-0.182364 z"
       sodipodi:nodetypes="ssssssccsccscssssssssssssssssssccsscccccccccccssssssssscccccccccsssss" />
    <path
       d="m 596.14459,14.485123 c -4.69369,-2.539019 -21.68266,-1.220237 -27.01597,-0.370284 -5.33331,0.849953 -3.7123,0.929632 -5.09498,1.743909 -1.38267,0.814278 -2.04924,1.574779 -3.14825,2.844031 -1.09901,1.269252 -2.47001,3.015305 -3.24966,4.841458 -0.77964,1.826152 0.86689,-0.471739 -1.30293,5.941578 -2.16982,6.413318 -11.7885,24.179899 -14.6058,31.299693 -2.81729,7.119794 -2.26098,8.845433 -3.55388,10.833741 -1.2929,1.988307 -0.13748,-1.104858 -2.09883,1.89602 -1.96136,3.000878 -4.18839,13.856076 -5.90624,17.723329 -1.71784,3.867254 -2.00453,4.826713 -3.30036,5.840172 -1.29583,1.013459 2.46697,3.32988 -3.04685,0.846603 -5.51381,-2.48328 -11.92849,-23.327072 -14.50901,-29.773957 -2.58052,-6.446885 -1.40176,-5.391392 -2.59051,-8.141821 -1.18875,-2.750428 -3.8109,-6.121527 -4.58794,-8.243228 -0.77704,-2.1217 0.52057,-0.142539 -0.7959,-4.045558 -1.31648,-3.90302 -8.31602,-14.795854 -9.07447,-18.483884 -0.75845,-3.68803 0.37127,-1.239288 0.1014,-1.997427 -0.26986,-0.75814 -1.37703,-1.062984 -1.89602,-2.098835 -0.51898,-1.035851 0.0398,-2.377512 -0.7959,-4.045558 -0.83573,-1.668048 -3.23837,-4.044495 -4.74005,-5.247087 -1.50167,-1.202593 0.50368,-0.923683 -3.89344,-2.200242 -4.39713,-1.27656 -17.77613,-1.539588 -22.97042,-1.166183 -5.19429,0.373404 -6.67467,0.569127 -8.09112,1.591798 -1.41644,1.022672 -0.20627,-1.132162 -1.10012,1.946724 -0.89385,3.078886 -0.82931,8.788146 -0.86196,16.978134 -0.0326,8.189988 1.18107,16.583295 1.37363,32.11095 0.19255,15.527655 -1.22212,47.003591 -1.0955,61.022951 0.12662,14.01935 -0.88084,18.85093 0.83125,23.07182 1.71208,4.22089 0.40159,1.1308 2.84403,3.14825 2.44244,2.01746 9.45901,5.03227 12.62835,7.65014 3.16934,2.61788 4.5832,5.83756 6.63607,7.34593 2.05287,1.50836 3.53502,1.91742 4.89216,2.25094 1.35715,0.33352 2.08099,0.47787 2.99614,0.15211 0.91516,-0.32576 1.71049,-0.78381 2.09884,-1.89602 0.38835,-1.11221 0.6878,-20.31941 0.5731,-31.01083 -0.11471,-10.69142 -1.58128,-23.92016 -1.32292,-33.10966 0.25835,-9.189505 -1.4619,-19.723138 2.11419,-21.921002 3.57609,-2.197863 -4.61206,-6.052607 2.94544,1.150825 7.5575,7.203432 22.96734,51.792937 24.27798,54.300827 1.31063,2.50789 2.07416,3.82939 4.74005,5.24709 2.66588,1.41769 7.5203,1.77811 10.93514,1.55645 3.41485,-0.22166 6.6801,-1.03746 9.14054,-2.53981 2.46044,-1.50235 3.96674,-3.41719 5.29779,-5.73876 1.33104,-2.32158 1.27406,-5.25504 2.40306,-7.88831 1.12899,-2.63326 3.84546,-5.87511 4.40048,-7.78689 0.55502,-1.91178 -0.60921,-0.21205 0.15211,-2.99614 0.76132,-2.78409 5.89011,-9.89497 6.65143,-12.67906 0.76132,-2.78409 -0.41085,-1.24049 0.15211,-2.99614 0.56296,-1.75566 3.73593,-4.873817 4.34978,-6.788183 0.61386,-1.914366 -0.39867,-1.923021 0.20281,-3.994855 0.60149,-2.071835 2.51016,-6.747204 4.40049,-7.786896 1.89033,-1.039691 -5.99242,-10.331432 3.99485,0.202815 9.98728,10.534246 0.10637,82.181419 -0.21354,83.096059 -0.31991,0.91463 0.66086,1.9726 1.51849,2.22509 0.85762,0.25248 17.25945,2.32454 22.29853,1.98793 5.03908,-0.3366 5.82215,-0.69278 7.0924,-1.6425 1.27025,-0.94971 0.86986,-0.9935 1.10012,-1.94672 0.23026,-0.95322 1.17959,-14.61249 1.21689,-23.96913 0.0373,-9.35665 -1.41093,-22.75431 -1.37363,-32.11095 0.0373,-9.35665 1.24919,-16.950745 1.21689,-23.969132 -0.0323,-7.018388 -0.91947,-7.55924 -1.08476,-18.078255 -0.16529,-10.519015 1.77606,-36.655708 1.28295,-44.992822 -0.49315,-8.337116 -0.13697,-3.474839 -0.7452,-5.044272 -0.60823,-1.569434 1.90036,-1.607947 -2.79333,-4.146966 z"
       id="path10"
       sodipodi:nodetypes="zzzzzzzzzzzzzzzzzzzzzzzzzzzzzzzzzzzzzzzzzzzzzzzzzzzzzzzzzzzzzzzzz" />
    <path
       style="fill:#000000"
       d="m 122.458,141.73 -19.63604,41.09493"
       id="path14"
       sodipodi:nodetypes="cc" />
  </g>
</svg>
