<?xml version="1.0" encoding="UTF-8" standalone="no"?>
<svg
   viewBox="0 0 1010 268"
   width="1010"
   height="268"
   version="1.1"
   id="svg10"
   sodipodi:docname="logo.svg"
   inkscape:version="1.4.2 (f4327f4, 2025-05-13)"
   xmlns:inkscape="http://www.inkscape.org/namespaces/inkscape"
   xmlns:sodipodi="http://sodipodi.sourceforge.net/DTD/sodipodi-0.dtd"
   xmlns="http://www.w3.org/2000/svg"
   xmlns:svg="http://www.w3.org/2000/svg">
  <defs
     id="defs10" />
  <sodipodi:namedview
     id="namedview10"
     pagecolor="#505050"
     bordercolor="#eeeeee"
     borderopacity="1"
     inkscape:showpageshadow="0"
     inkscape:pageopacity="0"
     inkscape:pagecheckerboard="0"
     inkscape:deskcolor="#505050"
     inkscape:zoom="1.8257426"
     inkscape:cx="481.99566"
     inkscape:cy="187.5949"
     inkscape:window-width="3840"
     inkscape:window-height="2054"
     inkscape:window-x="-11"
     inkscape:window-y="-11"
     inkscape:window-maximized="1"
     inkscape:current-layer="svg10" />
  <g
     fill="#000000"
     fill-rule="evenodd"
     stroke="none"
     id="g10"
     transform="rotate(3.0485218,504.31534,134.67508)">
    <path
       d="m 295,70 -2,-1 h -26 l -5,2 -1,2 4,76 -5,6 -8,4 h -9 l -8,-8 -2,-10 -2,-27 V 91 l -2,-16 -4,-3 h -27 l -4,3 -1,10 3,28 1,34 2,11 6,14 12,12 8,4 5,1 h 18 l 11,-5 9,-6 h 3 l 3,4 4,2 h 21 l 2,-1 2,-4 -3,-52 -3,-28 V 79 Z"
       id="path1" />
    <path
       d="m 334,66 -26,2 -3,3 6,106 3,5 28,-1 4,-4 v -16 l -3,-26 v -19 l -3,-27 1,-5 -1,-14 -3,-3 z"
       id="path2" />
    <path
       d="m 351,66 -2,2 v 16 l 2,8 10,1 29,-2 2,2 v 2 l -7,12 -4,4 -9,16 -5,6 -2,5 -8,10 v 2 l -6,11 1,17 2,2 h 9 l 17,-3 h 28 l 16,4 8,4 3,3 9,5 13,12 6,1 18,-21 -1,-6 -8,-8 -6,-2 -4,-4 -12,-7 -17,-6 h -5 l -12,-3 -20,-1 v -4 l 2,-2 v -2 l 4,-4 v -2 l 5,-6 v -2 l 3,-2 1,-4 4,-5 2,-5 4,-4 14,-23 V 66 l -1,-2 -3,-2 h -18 l -19,2 -40,1 z"
       id="path3" />
    <path
       d="m 666,51 -11,-2 -21,2 -16,7 -11,9 v 7 l 5,8 6,4 9,-1 13,-8 10,-1 5,2 3,3 2,6 v 4 l -3,3 -22,4 -15,7 -10,10 -4,6 -2,9 2,15 6,10 11,8 12,2 11,-1 16,-7 2,-3 3,-1 4,5 4,2 h 15 l 5,-4 v -19 l -2,-15 1,-9 -2,-27 -2,-11 -5,-10 -9,-9 -4,-1 z m -5,67 1,2 v 10 l -6,7 -6,2 h -9 l -5,-4 v -8 l 5,-6 15,-4 z"
       id="path4" />
    <path
       d="m 882,38 -16,4 -6,4 -11,12 -7,15 -2,11 v 17 l 1,7 4,12 6,11 8,8 7,5 11,4 20,1 14,-4 14,-8 7,-9 -1,-5 -4,-4 -1,-3 -4,-3 h -7 l -16,9 -6,1 -9,-1 -9,-8 -3,-7 v -3 l 2,-2 4,-1 32,-1 17,-2 4,-4 1,-3 -1,-17 -8,-20 -9,-9 -6,-4 h -4 l -7,-3 z m 20,35 -1,5 -2,1 -25,1 -2,-1 -1,-4 2,-4 7,-7 7,-2 6,1 5,3 z"
       id="path5" />
    <path
       d="m 995,33 -3,-1 -11,1 -6,3 -8,8 h -2 l -7,-8 h -18 l -3,3 2,89 2,15 2,1 22,-1 4,-3 -1,-62 2,-5 5,-6 7,-3 h 11 l 3,-2 2,-4 1,-20 z"
       id="path6" />
    <path
       d="m 69,24 -16,7 -15,11 -9,9 -6,9 -8,16 -4,16 -1,26 2,13 10,27 10,13 9,9 16,11 26,9 7,1 h 15 l 3,-2 4,1 v 3 l -4,7 -2,8 v 14 l 4,11 9,9 12,5 h 16 l 6,-2 14,-8 14,-12 h 3 l 6,-3 17,1 4,-2 1,-8 -5,-5 h -2 l -3,-3 -5,-1 -3,-2 -15,-1 -29,13 -6,-1 -5,-6 v -5 l 2,-5 14,-19 1,-4 3,-4 4,-13 6,2 5,-3 7,-12 6,-18 2,-14 v -14 l -2,-17 -2,-3 -2,-11 -9,-18 -5,-7 -18,-17 h -2 l -3,-3 -13,-6 h -3 l -3,-2 -11,-3 -25,-1 z m 57,143 3,1 -1,3 -3,-1 z M 80,59 92,56 h 15 l 11,3 7,4 7,6 9,14 5,16 1,20 3,5 -1,3 h -2 l -13,-7 -5,-1 h -23 l -7,2 -14,8 -12,13 1,5 5,4 h 5 l 8,-5 10,-3 h 8 l 7,2 9,9 2,5 -1,8 h -2 l -4,-3 -21,2 -16,-3 -4,-3 H 78 L 66,149 57,133 v -5 l -3,-9 V 96 l 2,-10 4,-9 5,-7 7,-7 h 2 z"
       id="path7" />
    <path
       d="m 312,20 -8,7 -3,7 1,13 4,6 8,6 4,1 9,-1 7,-4 6,-9 1,-3 -1,-11 -3,-5 -8,-7 -3,-1 z"
       id="path8" />
    <path
       d="m 813,14 -5,-1 -4,3 -19,28 -10,9 -5,8 -3,-1 1,-6 -2,-3 -3,-2 -16,-4 h -12 l -11,2 -7,3 -9,7 -7,11 -2,8 1,15 3,7 11,11 16,6 h 4 l 2,2 8,3 2,2 1,5 -3,5 -7,2 h -5 l -17,-7 -6,1 -4,3 -6,13 2,5 7,4 11,4 15,2 12,-1 15,-6 11,-11 4,-10 1,-14 -1,-6 -5,-10 -7,-6 -8,-4 -9,-3 h -4 l -7,-3 -6,-5 v -5 l 4,-4 7,-1 11,3 h 5 l 3,-2 4,-7 3,1 v 5 l 2,1 h 14 l 3,4 2,53 2,8 4,7 8,7 8,3 19,-1 15,-8 1,-7 -6,-10 -4,-4 h -6 l -5,2 -4,-3 -2,-4 -1,-47 3,-3 h 14 l 3,-1 3,-3 V 47 l -4,-4 h -17 l -3,-2 -1,-2 V 18 Z"
       id="path9" />
    <path
       d="m 590,10 -27,1 -5,2 -3,3 -3,5 -1,6 -13,32 -3,11 -2,2 -5,18 -3,6 -3,1 -16,-29 -3,-8 -5,-8 -1,-4 -10,-18 v -2 l -2,-2 -1,-4 -5,-5 -4,-2 h -23 l -8,2 -1,2 v 17 l 3,32 2,61 2,23 3,3 13,7 7,7 5,2 h 3 l 2,-2 -1,-31 -3,-33 1,-22 3,1 27,53 5,5 11,1 9,-3 5,-6 2,-8 4,-8 v -3 l 6,-13 v -3 l 4,-7 v -4 l 4,-8 h 4 l 4,83 1,2 23,1 7,-2 1,-2 v -24 l -3,-32 V 82 l -2,-18 -1,-45 -1,-5 z"
       id="path10" />
  </g>
</svg>
